<?xml version="1.0" encoding="UTF-8"?>
<svg width="150px" height="36px" viewBox="0 0 150 36" version="1.1" xmlns="http://www.w3.org/2000/svg" xmlns:xlink="http://www.w3.org/1999/xlink">
    <!-- Generator: Sketch 48.2 (47327) - http://www.bohemiancoding.com/sketch -->
    <title>icons/footer/SalesMasters_150x36</title>
    <desc>Created with Sketch.</desc>
    <defs>
        <polygon id="path-1" points="4.9939 0 25.0332931 0 25.0332931 6.8802 4.9939 6.8802"></polygon>
        <polygon id="path-3" points="4.994 29.11635 30.1856156 29.11635 30.1856156 36 4.994 36"></polygon>
    </defs>
    <g id="Symbols" stroke="none" stroke-width="1" fill="none" fill-rule="evenodd">
        <g id="icons/footer/SalesMasters_150x36">
            <path d="M22.3552,24.3065 C21.4502,25.1635 20.2522,25.6805 18.7622,25.8565 L18.7622,27.7075 C18.7622,27.9795 18.6862,28.1955 18.5342,28.3555 C18.3822,28.5155 18.1772,28.5965 17.9212,28.5965 C17.6652,28.5965 17.4602,28.5155 17.3082,28.3555 C17.1562,28.1955 17.0802,27.9795 17.0802,27.7075 L17.0802,25.8805 C16.1022,25.8165 15.1572,25.6245 14.2442,25.3035 C13.3312,24.9835 12.5542,24.5265 11.9132,23.9335 C11.6572,23.7255 11.5282,23.4535 11.5282,23.1165 C11.5282,22.8925 11.5922,22.6965 11.7212,22.5275 C11.8492,22.3595 12.0012,22.2755 12.1772,22.2755 C12.3692,22.2755 12.6012,22.3635 12.8742,22.5395 C14.4762,23.6615 16.0862,24.2225 17.7052,24.2225 C18.9702,24.2225 19.9562,23.9585 20.6612,23.4295 C21.3662,22.9005 21.7182,22.1475 21.7182,21.1705 C21.7182,20.5935 21.5382,20.1245 21.1782,19.7645 C20.8172,19.4035 20.3602,19.1235 19.8082,18.9235 C19.2552,18.7235 18.5062,18.5105 17.5612,18.2865 C16.3432,17.9825 15.3622,17.6775 14.6172,17.3735 C13.8722,17.0685 13.2352,16.6035 12.7062,15.9795 C12.1772,15.3545 11.9132,14.5135 11.9132,13.4555 C11.9132,12.5905 12.1292,11.8095 12.5622,11.1125 C12.9942,10.4155 13.5992,9.8505 14.3762,9.4185 C15.1532,8.9855 16.0472,8.7215 17.0562,8.6255 L17.0562,6.7745 C17.0562,6.5185 17.1362,6.3065 17.2962,6.1375 C17.4562,5.9695 17.6572,5.8855 17.8972,5.8855 C18.1532,5.8855 18.3572,5.9655 18.5102,6.1255 C18.6622,6.2855 18.7382,6.5025 18.7382,6.7745 L18.7382,8.6255 C19.5872,8.7055 20.4042,8.9055 21.1892,9.2255 C21.9752,9.5465 22.6392,9.9865 23.1842,10.5475 C23.4562,10.7725 23.5932,11.0445 23.5932,11.3645 C23.5932,11.5895 23.5252,11.7855 23.3882,11.9535 C23.2522,12.1215 23.0962,12.2065 22.9202,12.2065 C22.7112,12.2065 22.4872,12.1185 22.2472,11.9415 C21.5422,11.3645 20.8572,10.9405 20.1922,10.6685 C19.5272,10.3955 18.7542,10.2595 17.8732,10.2595 C16.6552,10.2595 15.6902,10.5395 14.9772,11.1005 C14.2642,11.6615 13.9082,12.4225 13.9082,13.3835 C13.9082,14.0565 14.1042,14.5935 14.4962,14.9935 C14.8892,15.3945 15.3742,15.7025 15.9512,15.9195 C16.5272,16.1355 17.3202,16.3715 18.3302,16.6285 C19.4992,16.9165 20.4402,17.2045 21.1542,17.4935 C21.8662,17.7815 22.4712,18.2185 22.9682,18.8025 C23.4642,19.3885 23.7132,20.1695 23.7132,21.1465 C23.7132,22.3955 23.2602,23.4495 22.3552,24.3065" id="Fill-1" fill="#757575"></path>
            <path d="M32.8552,23.3692 C33.4712,22.7202 33.7802,21.8832 33.7802,20.8582 L33.7802,20.1612 L33.3472,20.1612 C31.9382,20.1612 30.8642,20.2212 30.1272,20.3412 C29.3902,20.4612 28.8652,20.6612 28.5532,20.9422 C28.2402,21.2222 28.0842,21.6352 28.0842,22.1792 C28.0842,22.8042 28.3132,23.3212 28.7692,23.7292 C29.2262,24.1382 29.7992,24.3422 30.4882,24.3422 C31.4492,24.3422 32.2382,24.0182 32.8552,23.3692 M35.6792,18.3342 L35.6792,24.8712 C35.6792,25.1592 35.5952,25.3922 35.4262,25.5682 C35.2582,25.7442 35.0302,25.8322 34.7412,25.8322 C34.4532,25.8322 34.2202,25.7442 34.0442,25.5682 C33.8682,25.3922 33.7802,25.1592 33.7802,24.8712 L33.7802,23.7172 C33.4752,24.4062 33.0112,24.9392 32.3862,25.3162 C31.7612,25.6922 31.0402,25.8802 30.2232,25.8802 C29.4702,25.8802 28.7772,25.7282 28.1442,25.4242 C27.5112,25.1192 27.0112,24.6952 26.6422,24.1502 C26.2742,23.6062 26.0902,23.0052 26.0902,22.3482 C26.0902,21.4672 26.3142,20.7822 26.7622,20.2932 C27.2112,19.8042 27.9482,19.4522 28.9742,19.2352 C29.9992,19.0192 31.4252,18.9112 33.2512,18.9112 L33.7802,18.9112 L33.7802,18.1182 C33.7802,17.1562 33.5842,16.4522 33.1912,16.0032 C32.7992,15.5552 32.1622,15.3302 31.2812,15.3302 C30.1912,15.3302 29.0862,15.6272 27.9642,16.2192 C27.5322,16.4922 27.2272,16.6282 27.0512,16.6282 C26.8592,16.6282 26.6992,16.5562 26.5702,16.4112 C26.4422,16.2672 26.3782,16.0832 26.3782,15.8592 C26.3782,15.6352 26.4462,15.4382 26.5822,15.2702 C26.7182,15.1022 26.9392,14.9302 27.2432,14.7532 C27.8042,14.4332 28.4412,14.1812 29.1542,13.9962 C29.8662,13.8122 30.5752,13.7202 31.2812,13.7202 C34.2132,13.7202 35.6792,15.2582 35.6792,18.3342" id="Fill-3" fill="#757575"></path>
            <path d="M39.2308,25.5802 C39.0458,25.4122 38.9538,25.1752 38.9538,24.8712 L38.9538,9.6102 C38.9538,9.3062 39.0458,9.0702 39.2308,8.9012 C39.4148,8.7332 39.6518,8.6492 39.9398,8.6492 C40.2118,8.6492 40.4398,8.7332 40.6248,8.9012 C40.8088,9.0702 40.9008,9.3062 40.9008,9.6102 L40.9008,24.8712 C40.9008,25.1752 40.8088,25.4122 40.6248,25.5802 C40.4398,25.7482 40.2118,25.8322 39.9398,25.8322 C39.6518,25.8322 39.4148,25.7482 39.2308,25.5802" id="Fill-5" fill="#757575"></path>
            <path d="M46.6638,16.1954 C46.0468,16.8364 45.6828,17.7414 45.5698,18.9114 L52.3718,18.9114 C52.3398,17.7254 52.0428,16.8164 51.4818,16.1834 C50.9218,15.5504 50.1368,15.2344 49.1268,15.2344 C48.1018,15.2344 47.2808,15.5544 46.6638,16.1954 M53.7898,23.2134 C53.9178,23.3574 53.9818,23.5414 53.9818,23.7654 C53.9818,24.1664 53.7008,24.5344 53.1408,24.8714 C52.5638,25.2074 51.9548,25.4604 51.3138,25.6284 C50.6728,25.7964 50.0478,25.8804 49.4398,25.8804 C47.6288,25.8804 46.1988,25.3434 45.1498,24.2704 C44.0998,23.1974 43.5758,21.7154 43.5758,19.8244 C43.5758,18.6224 43.8078,17.5614 44.2728,16.6404 C44.7368,15.7184 45.3898,15.0024 46.2318,14.4894 C47.0728,13.9764 48.0298,13.7204 49.1028,13.7204 C50.6248,13.7204 51.8348,14.2164 52.7318,15.2104 C53.6288,16.2034 54.0778,17.5494 54.0778,19.2474 C54.0778,19.5684 54.0138,19.8004 53.8858,19.9444 C53.7568,20.0884 53.5488,20.1604 53.2608,20.1604 L45.5228,20.1604 C45.6668,22.9164 46.9718,24.2944 49.4398,24.2944 C50.0648,24.2944 50.6008,24.2104 51.0498,24.0424 C51.4978,23.8734 51.9788,23.6454 52.4918,23.3574 C52.9088,23.1164 53.1888,22.9964 53.3328,22.9964 C53.5088,22.9964 53.6608,23.0684 53.7898,23.2134" id="Fill-7" fill="#757575"></path>
            <path d="M58.6151,25.6163 C57.9501,25.4403 57.3611,25.1923 56.8491,24.8713 C56.5601,24.6793 56.3561,24.4983 56.2361,24.3303 C56.1161,24.1623 56.0561,23.9583 56.0561,23.7173 C56.0561,23.5093 56.1161,23.3373 56.2361,23.2003 C56.3561,23.0653 56.5121,22.9963 56.7041,22.9963 C56.8971,22.9963 57.1771,23.1163 57.5461,23.3573 C58.0261,23.6453 58.5031,23.8743 58.9761,24.0423 C59.4481,24.2103 60.0371,24.2943 60.7421,24.2943 C61.6071,24.2943 62.2801,24.1423 62.7611,23.8373 C63.2411,23.5333 63.4821,23.0933 63.4821,22.5163 C63.4821,22.1633 63.3931,21.8793 63.2171,21.6633 C63.0411,21.4463 62.7371,21.2543 62.3041,21.0863 C61.8721,20.9183 61.2391,20.7463 60.4061,20.5693 C58.9951,20.2653 57.9861,19.8563 57.3781,19.3433 C56.7691,18.8313 56.4641,18.1343 56.4641,17.2523 C56.4641,16.5643 56.6571,15.9553 57.0411,15.4263 C57.4261,14.8973 57.9581,14.4813 58.6391,14.1773 C59.3201,13.8723 60.0931,13.7203 60.9581,13.7203 C61.5831,13.7203 62.1881,13.8043 62.7731,13.9723 C63.3571,14.1403 63.8741,14.3773 64.3231,14.6813 C64.8671,15.0663 65.1401,15.4663 65.1401,15.8833 C65.1401,16.0913 65.0761,16.2673 64.9481,16.4113 C64.8191,16.5553 64.6671,16.6283 64.4911,16.6283 C64.2991,16.6283 64.0101,16.4923 63.6261,16.2193 C63.1771,15.9313 62.7531,15.7073 62.3521,15.5463 C61.9521,15.3863 61.4551,15.3063 60.8621,15.3063 C60.1091,15.3063 59.5041,15.4743 59.0481,15.8113 C58.5911,16.1473 58.3631,16.5963 58.3631,17.1563 C58.3631,17.5093 58.4471,17.7933 58.6151,18.0103 C58.7831,18.2263 59.0641,18.4183 59.4561,18.5863 C59.8491,18.7543 60.4131,18.9193 61.1511,19.0793 C62.2401,19.3193 63.0851,19.5843 63.6861,19.8723 C64.2871,20.1603 64.7151,20.5133 64.9721,20.9293 C65.2281,21.3463 65.3561,21.8753 65.3561,22.5163 C65.3561,23.5253 64.9321,24.3383 64.0831,24.9553 C63.2331,25.5723 62.1121,25.8803 60.7181,25.8803 C59.9811,25.8803 59.2801,25.7923 58.6151,25.6163" id="Fill-9" fill="#757575"></path>
            <path d="M84.217,8.9254 C84.385,9.1104 84.469,9.3544 84.469,9.6584 L84.469,24.8714 C84.469,25.1594 84.389,25.3924 84.229,25.5684 C84.069,25.7444 83.845,25.8324 83.556,25.8324 C83.268,25.8324 83.051,25.7444 82.907,25.5684 C82.763,25.3924 82.691,25.1594 82.691,24.8714 L82.691,12.5904 L77.476,22.5884 C77.251,23.0534 76.923,23.2854 76.491,23.2854 C76.074,23.2854 75.746,23.0534 75.506,22.5884 L70.266,12.7104 L70.266,24.8714 C70.266,25.1594 70.19,25.3924 70.038,25.5684 C69.885,25.7444 69.665,25.8324 69.377,25.8324 C69.089,25.8324 68.864,25.7444 68.704,25.5684 C68.544,25.3924 68.464,25.1594 68.464,24.8714 L68.464,9.6584 C68.464,9.3544 68.552,9.1104 68.728,8.9254 C68.904,8.7414 69.144,8.6494 69.449,8.6494 C69.85,8.6494 70.17,8.8814 70.41,9.3464 L76.515,21.0504 L82.547,9.3464 C82.675,9.0904 82.815,8.9094 82.967,8.8054 C83.12,8.7014 83.3,8.6494 83.508,8.6494 C83.812,8.6494 84.049,8.7414 84.217,8.9254" id="Fill-11" fill="#FA0064"></path>
            <path d="M94.4619,23.3692 C95.0779,22.7202 95.3869,21.8832 95.3869,20.8582 L95.3869,20.1612 L94.9539,20.1612 C93.5449,20.1612 92.4709,20.2212 91.7339,20.3412 C90.9969,20.4612 90.4719,20.6612 90.1599,20.9422 C89.8469,21.2222 89.6909,21.6352 89.6909,22.1792 C89.6909,22.8042 89.9199,23.3212 90.3759,23.7292 C90.8329,24.1382 91.4059,24.3422 92.0949,24.3422 C93.0559,24.3422 93.8449,24.0182 94.4619,23.3692 M97.2859,18.3342 L97.2859,24.8712 C97.2859,25.1592 97.2019,25.3922 97.0329,25.5682 C96.8649,25.7442 96.6369,25.8322 96.3479,25.8322 C96.0599,25.8322 95.8269,25.7442 95.6509,25.5682 C95.4749,25.3922 95.3869,25.1592 95.3869,24.8712 L95.3869,23.7172 C95.0829,24.4062 94.6179,24.9392 93.9929,25.3162 C93.3679,25.6922 92.6479,25.8802 91.8299,25.8802 C91.0769,25.8802 90.3839,25.7282 89.7509,25.4242 C89.1179,25.1192 88.6179,24.6952 88.2499,24.1502 C87.8809,23.6062 87.6969,23.0052 87.6969,22.3482 C87.6969,21.4672 87.9209,20.7822 88.3689,20.2932 C88.8179,19.8042 89.5549,19.4522 90.5809,19.2352 C91.6059,19.0192 93.0319,18.9112 94.8579,18.9112 L95.3869,18.9112 L95.3869,18.1182 C95.3869,17.1562 95.1909,16.4522 94.7979,16.0032 C94.4059,15.5552 93.7689,15.3302 92.8879,15.3302 C91.7979,15.3302 90.6929,15.6272 89.5709,16.2192 C89.1389,16.4922 88.8339,16.6282 88.6579,16.6282 C88.4659,16.6282 88.3059,16.5562 88.1769,16.4112 C88.0489,16.2672 87.9849,16.0832 87.9849,15.8592 C87.9849,15.6352 88.0529,15.4382 88.1899,15.2702 C88.3249,15.1022 88.5459,14.9302 88.8499,14.7532 C89.4109,14.4332 90.0479,14.1812 90.7609,13.9962 C91.4729,13.8122 92.1819,13.7202 92.8879,13.7202 C95.8199,13.7202 97.2859,15.2582 97.2859,18.3342" id="Fill-13" fill="#FA0064"></path>
            <path d="M102.3037,25.6163 C101.6387,25.4403 101.0497,25.1923 100.5377,24.8713 C100.2487,24.6793 100.0447,24.4983 99.9247,24.3303 C99.8047,24.1623 99.7447,23.9583 99.7447,23.7173 C99.7447,23.5093 99.8047,23.3373 99.9247,23.2003 C100.0447,23.0653 100.2007,22.9963 100.3927,22.9963 C100.5857,22.9963 100.8657,23.1163 101.2337,23.3573 C101.7147,23.6453 102.1917,23.8743 102.6647,24.0423 C103.1367,24.2103 103.7257,24.2943 104.4307,24.2943 C105.2957,24.2943 105.9687,24.1423 106.4497,23.8373 C106.9297,23.5333 107.1707,23.0933 107.1707,22.5163 C107.1707,22.1633 107.0817,21.8793 106.9057,21.6633 C106.7297,21.4463 106.4257,21.2543 105.9927,21.0863 C105.5607,20.9183 104.9277,20.7463 104.0947,20.5693 C102.6837,20.2653 101.6747,19.8563 101.0657,19.3433 C100.4567,18.8313 100.1527,18.1343 100.1527,17.2523 C100.1527,16.5643 100.3457,15.9553 100.7297,15.4263 C101.1147,14.8973 101.6467,14.4813 102.3277,14.1773 C103.0087,13.8723 103.7817,13.7203 104.6467,13.7203 C105.2717,13.7203 105.8767,13.8043 106.4617,13.9723 C107.0457,14.1403 107.5627,14.3773 108.0117,14.6813 C108.5557,15.0663 108.8287,15.4663 108.8287,15.8833 C108.8287,16.0913 108.7647,16.2673 108.6367,16.4113 C108.5077,16.5553 108.3557,16.6283 108.1797,16.6283 C107.9877,16.6283 107.6987,16.4923 107.3147,16.2193 C106.8657,15.9313 106.4417,15.7073 106.0407,15.5463 C105.6407,15.3863 105.1437,15.3063 104.5507,15.3063 C103.7977,15.3063 103.1927,15.4743 102.7367,15.8113 C102.2797,16.1473 102.0517,16.5963 102.0517,17.1563 C102.0517,17.5093 102.1357,17.7933 102.3037,18.0103 C102.4717,18.2263 102.7517,18.4183 103.1447,18.5863 C103.5377,18.7543 104.1017,18.9193 104.8397,19.0793 C105.9287,19.3193 106.7737,19.5843 107.3747,19.8723 C107.9757,20.1603 108.4037,20.5133 108.6607,20.9293 C108.9167,21.3463 109.0447,21.8753 109.0447,22.5163 C109.0447,23.5253 108.6207,24.3383 107.7717,24.9553 C106.9217,25.5723 105.8007,25.8803 104.4067,25.8803 C103.6697,25.8803 102.9687,25.7923 102.3037,25.6163" id="Fill-15" fill="#FA0064"></path>
            <path d="M118.5183,25.0633 C118.5183,25.3363 118.4183,25.5403 118.2173,25.6763 C118.0173,25.8123 117.7163,25.8643 117.3163,25.8323 L116.6673,25.7843 C115.3853,25.6883 114.4403,25.3033 113.8323,24.6313 C113.2233,23.9583 112.9183,22.9403 112.9183,21.5783 L112.9183,15.5463 L111.3083,15.5463 C111.0363,15.5463 110.8233,15.4783 110.6713,15.3423 C110.5193,15.2063 110.4433,15.0263 110.4433,14.8013 C110.4433,14.5613 110.5193,14.3693 110.6713,14.2243 C110.8233,14.0803 111.0363,14.0083 111.3083,14.0083 L112.9183,14.0083 L112.9183,11.2923 C112.9183,10.9883 113.0063,10.7513 113.1833,10.5843 C113.3593,10.4153 113.5993,10.3313 113.9043,10.3313 C114.1923,10.3313 114.4243,10.4153 114.6013,10.5843 C114.7773,10.7513 114.8653,10.9883 114.8653,11.2923 L114.8653,14.0083 L117.5323,14.0083 C117.7893,14.0083 117.9933,14.0803 118.1453,14.2243 C118.2973,14.3693 118.3733,14.5613 118.3733,14.8013 C118.3733,15.0263 118.2973,15.2063 118.1453,15.3423 C117.9933,15.4783 117.7893,15.5463 117.5323,15.5463 L114.8653,15.5463 L114.8653,21.6753 C114.8653,22.5563 115.0453,23.1933 115.4063,23.5853 C115.7663,23.9783 116.3073,24.1983 117.0283,24.2463 L117.6773,24.2943 C118.2373,24.3423 118.5183,24.5993 118.5183,25.0633" id="Fill-17" fill="#FA0064"></path>
            <path d="M122.3562,16.1954 C121.7392,16.8364 121.3752,17.7414 121.2622,18.9114 L128.0642,18.9114 C128.0322,17.7254 127.7352,16.8164 127.1742,16.1834 C126.6142,15.5504 125.8292,15.2344 124.8192,15.2344 C123.7942,15.2344 122.9732,15.5544 122.3562,16.1954 M129.4822,23.2134 C129.6102,23.3574 129.6742,23.5414 129.6742,23.7654 C129.6742,24.1664 129.3932,24.5344 128.8332,24.8714 C128.2562,25.2074 127.6472,25.4604 127.0062,25.6284 C126.3652,25.7964 125.7402,25.8804 125.1322,25.8804 C123.3212,25.8804 121.8912,25.3434 120.8422,24.2704 C119.7922,23.1974 119.2682,21.7154 119.2682,19.8244 C119.2682,18.6224 119.5002,17.5614 119.9652,16.6404 C120.4292,15.7184 121.0822,15.0024 121.9242,14.4894 C122.7652,13.9764 123.7222,13.7204 124.7952,13.7204 C126.3172,13.7204 127.5272,14.2164 128.4242,15.2104 C129.3212,16.2034 129.7702,17.5494 129.7702,19.2474 C129.7702,19.5684 129.7062,19.8004 129.5782,19.9444 C129.4492,20.0884 129.2412,20.1604 128.9532,20.1604 L121.2152,20.1604 C121.3592,22.9164 122.6642,24.2944 125.1322,24.2944 C125.7572,24.2944 126.2932,24.2104 126.7422,24.0424 C127.1902,23.8734 127.6712,23.6454 128.1842,23.3574 C128.6002,23.1164 128.8812,22.9964 129.0252,22.9964 C129.2012,22.9964 129.3532,23.0684 129.4822,23.2134" id="Fill-19" fill="#FA0064"></path>
            <path d="M139.2922,14.5851 C139.2922,14.8421 139.2202,15.0461 139.0762,15.1981 C138.9312,15.3501 138.6832,15.4421 138.3312,15.4741 L137.6102,15.5461 C136.5362,15.6431 135.7392,16.0231 135.2182,16.6881 C134.6982,17.3531 134.4372,18.1341 134.4372,19.0311 L134.4372,24.8711 C134.4372,25.1921 134.3492,25.4321 134.1732,25.5921 C133.9962,25.7521 133.7642,25.8331 133.4762,25.8331 C133.1882,25.8331 132.9512,25.7481 132.7672,25.5801 C132.5832,25.4121 132.4902,25.1761 132.4902,24.8711 L132.4902,14.7291 C132.4902,14.4251 132.5872,14.1891 132.7792,14.0201 C132.9712,13.8521 133.2042,13.7681 133.4762,13.7681 C133.7322,13.7681 133.9482,13.8521 134.1252,14.0201 C134.3012,14.1891 134.3892,14.4171 134.3892,14.7051 L134.3892,16.0511 C134.7262,15.3461 135.2022,14.8101 135.8192,14.4411 C136.4362,14.0731 137.1452,13.8561 137.9462,13.7921 L138.2822,13.7681 C138.9552,13.7201 139.2922,13.9921 139.2922,14.5851" id="Fill-21" fill="#FA0064"></path>
            <path d="M142.7935,25.6163 C142.1285,25.4403 141.5395,25.1923 141.0275,24.8713 C140.7385,24.6793 140.5345,24.4983 140.4145,24.3303 C140.2945,24.1623 140.2345,23.9583 140.2345,23.7173 C140.2345,23.5093 140.2945,23.3373 140.4145,23.2003 C140.5345,23.0653 140.6905,22.9963 140.8825,22.9963 C141.0755,22.9963 141.3555,23.1163 141.7235,23.3573 C142.2045,23.6453 142.6815,23.8743 143.1535,24.0423 C143.6265,24.2103 144.2155,24.2943 144.9205,24.2943 C145.7855,24.2943 146.4585,24.1423 146.9395,23.8373 C147.4195,23.5333 147.6605,23.0933 147.6605,22.5163 C147.6605,22.1633 147.5715,21.8793 147.3955,21.6633 C147.2195,21.4463 146.9155,21.2543 146.4825,21.0863 C146.0505,20.9183 145.4175,20.7463 144.5845,20.5693 C143.1735,20.2653 142.1645,19.8563 141.5555,19.3433 C140.9465,18.8313 140.6425,18.1343 140.6425,17.2523 C140.6425,16.5643 140.8355,15.9553 141.2195,15.4263 C141.6035,14.8973 142.1365,14.4813 142.8175,14.1773 C143.4985,13.8723 144.2715,13.7203 145.1365,13.7203 C145.7615,13.7203 146.3665,13.8043 146.9515,13.9723 C147.5355,14.1403 148.0525,14.3773 148.5015,14.6813 C149.0455,15.0663 149.3185,15.4663 149.3185,15.8833 C149.3185,16.0913 149.2545,16.2673 149.1265,16.4113 C148.9975,16.5553 148.8455,16.6283 148.6695,16.6283 C148.4775,16.6283 148.1885,16.4923 147.8045,16.2193 C147.3555,15.9313 146.9305,15.7073 146.5305,15.5463 C146.1295,15.3863 145.6335,15.3063 145.0405,15.3063 C144.2875,15.3063 143.6825,15.4743 143.2265,15.8113 C142.7695,16.1473 142.5415,16.5963 142.5415,17.1563 C142.5415,17.5093 142.6255,17.7933 142.7935,18.0103 C142.9615,18.2263 143.2415,18.4183 143.6345,18.5863 C144.0275,18.7543 144.5915,18.9193 145.3285,19.0793 C146.4185,19.3193 147.2635,19.5843 147.8645,19.8723 C148.4655,20.1603 148.8935,20.5133 149.1505,20.9293 C149.4065,21.3463 149.5345,21.8753 149.5345,22.5163 C149.5345,23.5253 149.1105,24.3383 148.2605,24.9553 C147.4115,25.5723 146.2905,25.8803 144.8965,25.8803 C144.1595,25.8803 143.4585,25.7923 142.7935,25.6163" id="Fill-23" fill="#FA0064"></path>
            <path d="M30.059,6.8802 C29.818,6.8802 29.576,6.7882 29.392,6.6042 C28.719,5.9302 27.984,5.3142 27.208,4.7722 C26.781,4.4732 26.676,3.8862 26.975,3.4592 C27.273,3.0312 27.861,2.9272 28.287,3.2252 C29.154,3.8312 29.974,4.5192 30.726,5.2712 C31.094,5.6392 31.094,6.2362 30.726,6.6042 C30.541,6.7882 30.3,6.8802 30.059,6.8802" id="Fill-25" fill="#FA0064"></path>
            <path d="M31.8469,8.9786 C31.5539,8.9786 31.2659,8.8436 31.0819,8.5876 C30.5759,7.8866 30.0079,7.2196 29.3919,6.6036 C29.0239,6.2356 29.0239,5.6386 29.3919,5.2706 C29.7599,4.9026 30.3579,4.9026 30.7259,5.2706 C31.4119,5.9576 32.0459,6.7016 32.6109,7.4846 C32.9159,7.9066 32.8199,8.4956 32.3979,8.8006 C32.2309,8.9206 32.0379,8.9786 31.8469,8.9786" id="Fill-27" fill="#FA0064"></path>
            <path d="M27.7467,4.9415 C27.5607,4.9415 27.3717,4.8865 27.2077,4.7715 C26.1367,4.0245 24.9747,3.4085 23.7537,2.9425 C23.2677,2.7565 23.0237,2.2125 23.2097,1.7255 C23.3957,1.2385 23.9387,0.9965 24.4267,1.1815 C25.7907,1.7025 27.0897,2.3905 28.2867,3.2255 C28.7137,3.5235 28.8187,4.1115 28.5207,4.5385 C28.3377,4.8005 28.0447,4.9415 27.7467,4.9415" id="Fill-29" fill="#BE0064"></path>
            <path d="M5.2616764,5.27952412 C5.26439687,5.2767367 5.26713807,5.27396193 5.2699,5.2712 C10.2829,0.2582 17.8019,-1.3468 24.4269,1.1812 C24.9129,1.3672 25.1569,1.9112 24.9709,2.3982 C24.7859,2.8842 24.2409,3.1282 23.7539,2.9432 C17.8239,0.6802 11.0919,2.1162 6.6039,6.6042 C6.59594225,6.61215775 6.58787602,6.61994341 6.57970607,6.627557 C5.09500468,8.11921071 3.9340421,9.85007897 3.1293,11.7739 C2.9783,12.1359 2.6283,12.3539 2.2593,12.3539 C2.1383,12.3539 2.0143,12.3309 1.8963,12.2809 C1.4153,12.0799 1.1893,11.5279 1.3893,11.0469 C2.29274259,8.88862058 3.59480965,6.94759149 5.2616764,5.27952412 Z" id="Combined-Shape" fill="#757575"></path>
            <mask id="mask-2" fill="white">
                <use xlink:href="#path-1"></use>
            </mask>
            <g id="Clip-34"></g>
            <mask id="mask-4" fill="white">
                <use xlink:href="#path-3"></use>
            </mask>
            <g id="Clip-37"></g>
            <path d="M18.014,36.0001 C17.075,36.0001 16.131,35.9271 15.187,35.7791 C11.411,35.1851 7.982,33.4371 5.27,30.7261 C4.902,30.3571 4.902,29.7601 5.27,29.3931 C5.638,29.0241 6.235,29.0241 6.604,29.3931 C9.031,31.8201 12.101,33.3841 15.48,33.9161 C20.232,34.6641 25.021,33.2781 28.621,30.1161 C29.012,29.7731 29.607,29.8111 29.951,30.2021 C30.295,30.5941 30.256,31.1891 29.865,31.5331 C26.558,34.4371 22.354,36.0001 18.014,36.0001" id="Fill-36" fill="#FA0064"></path>
            <path d="M5.9369,31.002 C5.6959,31.002 5.4549,30.91 5.2699,30.726 C1.1839,26.64 -0.6981,20.792 0.2349,15.081 C0.4609,13.696 0.8499,12.338 1.3899,11.047 C1.5909,10.567 2.1439,10.34 2.6229,10.541 C3.1039,10.742 3.3309,11.294 3.1299,11.775 C2.6459,12.93 2.2989,14.145 2.0959,15.386 C1.2599,20.498 2.9449,25.735 6.6039,29.393 C6.9719,29.761 6.9719,30.357 6.6039,30.726 C6.4199,30.91 6.1779,31.002 5.9369,31.002" id="Fill-39" fill="#BE0064"></path>
        </g>
    </g>
</svg>