<?xml version="1.0" standalone="no"?>
<!DOCTYPE svg PUBLIC "-//W3C//DTD SVG 20010904//EN"
 "http://www.w3.org/TR/2001/REC-SVG-20010904/DTD/svg10.dtd">
<svg version="1.0" xmlns="http://www.w3.org/2000/svg"
 width="800.000000pt" height="299.000000pt" viewBox="0 0 800.000000 299.000000"
 preserveAspectRatio="xMidYMid meet">

<g transform="translate(0.000000,299.000000) scale(0.100000,-0.100000)"
fill="#000000" stroke="none">
<path d="M1062 1917 l-432 -432 0 -270 0 -270 153 -153 152 -152 465 0 465 0
130 130 129 130 36 -35 35 -35 260 -2 260 -3 3 -93 3 -92 369 0 c322 0 370 2
370 15 0 19 14 19 30 0 11 -13 240 -15 1946 -15 l1934 0 0 58 0 57 -200 200
-200 200 200 200 200 200 0 245 0 245 -153 153 -152 152 -515 0 -514 0 -68
-67 -68 -67 -68 67 -68 67 -699 0 -700 0 -157 -157 -158 -158 -158 158 -157
157 -1120 0 -1120 0 -433 -433z m2815 171 l173 -173 173 173 172 172 670 0
670 0 82 -82 83 -83 83 83 82 82 490 0 490 0 122 -122 123 -123 0 -210 0 -210
-220 -220 -220 -220 212 -212 213 -213 -410 0 -409 0 -33 32 -33 32 0 -32 0
-32 -1427 0 -1428 0 -77 77 -78 78 0 -78 0 -77 -290 0 -290 0 0 90 0 90 -283
0 -283 0 -54 55 -55 55 -145 -145 -145 -145 -440 0 -440 0 -122 122 -123 123
0 235 0 235 407 407 408 408 1090 0 1090 0 172 -172z"/>
<path d="M1237 1732 l-367 -367 0 -155 0 -155 83 -83 82 -82 360 0 360 0 102
102 103 103 0 227 0 228 -168 0 -167 0 -125 -125 -125 -125 168 0 167 0 0 -53
c0 -43 -5 -58 -23 -75 -23 -21 -30 -22 -295 -22 l-272 0 0 58 0 57 293 293
292 292 265 0 265 0 125 125 125 125 -440 0 -440 0 -368 -368z"/>
<path d="M2433 1818 l-283 -283 0 -150 0 -150 78 -78 77 -77 330 -2 330 -3 3
-93 3 -93 122 3 122 3 0 600 0 600 -250 3 -250 2 -282 -282z m532 -233 l0
-260 -280 0 -280 0 -3 49 -3 50 213 213 213 214 70 -3 70 -3 0 -260z"/>
<path d="M3400 1597 l0 -502 103 -103 102 -102 138 0 137 0 0 125 0 125 -83 0
c-81 0 -84 1 -115 33 l-32 33 0 259 0 260 200 -200 200 -200 200 200 200 200
0 -261 0 -260 -33 -32 c-32 -31 -36 -32 -120 -32 l-88 0 3 -122 3 -123 135 -3
135 -2 108 108 107 108 -2 494 -3 495 -115 3 -114 3 -211 -211 -210 -210 -210
210 -210 210 -112 0 -113 0 0 -503z"/>
<path d="M4850 1975 l0 -125 353 0 c261 0 356 -3 365 -12 8 -8 12 -49 12 -118
l0 -106 -33 -32 -33 -32 -282 0 -282 0 0 -125 0 -125 289 0 289 0 27 -31 c21
-26 25 -40 23 -78 l-3 -46 -310 -3 -311 -2 -124 -125 -125 -125 558 0 557 0 0
233 0 233 -35 34 -35 34 35 36 35 36 0 225 0 224 -78 78 -77 77 -408 0 -407 0
0 -125z"/>
<path d="M6057 2022 l-77 -77 0 -528 0 -527 125 0 125 0 0 95 0 95 53 0 52 0
95 -95 95 -95 180 0 180 0 -133 133 -132 132 255 255 255 255 0 135 0 135 -83
83 -82 82 -415 0 -415 0 -78 -78z m821 -216 c3 -39 2 -41 -220 -263 l-223
-223 -103 0 -102 0 0 258 c0 142 3 262 7 265 4 4 149 6 322 5 l316 -3 3 -39z"/>
</g>
</svg>
