<svg xmlns="http://www.w3.org/2000/svg" width="141" height="43" viewBox="0 0 141 43">
  <g fill="#1D1D1B">
  <path d="M44,40.7h7.7v-2.6h-5.1v-2.6h5.1v-7.7H44V40.7z M46.7,30.4h2.6V33h-2.6V30.4z M39,27.8h2.6V33l-2,7.7h-3.8l-2-7.7
	v-5.2h2.6V33l1.3,5.1l1.3-5.1C38.9,33,38.9,27.8,39,27.8z M19.9,27.8h2.6v12.9h-2.6V27.8z M9.6,27.8h7.7v2.6h-5.2V33h5.2v7.7H9.6
	v-2.6h5.2v-2.6H9.6V27.8z M27.5,38.1h5.1v2.6h-7.7V27.8h2.6C27.5,27.8,27.5,38.1,27.5,38.1z M54.3,40.7h2.6v-5.2h2.6v5.2h2.6v-5.2
	l-1.3-1.2l1.3-1.3v-5.2h-7.7L54.3,40.7z M57,30.4h2.6V33H57V30.4z M109.9,27.8h2.6V33l-1.3,1.3l1.3,1.3v5.2H110v-5.2h-2.6v5.2h-2.6
	v-13h2.6V33h2.6C110,33,110,27.8,109.9,27.8z M84.2,40.7h7.7V27.8h-7.7V40.7z M86.8,30.4h2.6v7.7h-2.6V30.4z M94.6,27.8h7.7v12.9
	h-2.6V30.4h-2.6v10.3h-2.6L94.6,27.8z M115.2,40.7h7.7v-2.6h-5.1v-2.6h5.1v-7.7h-7.7V40.7z M117.8,30.4h2.6V33h-2.6V30.4z
	 M68.8,27.8h12.9v12.9h-2.6V30.4h-2.6v10.3h-2.6V30.4h-2.6v10.3h-2.6L68.8,27.8z M133.1,27.8v7.7h-2.6v5.2h-2.6v-5.2h-2.6v-7.7h2.6
	V33h2.6v-5.2H133.1z"/>
<path transform="translate(0)" d="M0.6,2.3v7.8h5.2v2.6H0.6v2.6h7.8V7.5H3.2V4.9h5.2V2.3H0.6z M11.1,15.4h2.6V2.3h-2.6
	V15.4z M16.4,2.3v13.1h7.8v-2.6H19V2.3H16.4z M30.4,2.3v5.2l-1.3,5.1l-1.3-5.1V2.3h-2.6v5.2l2,7.8h3.9l2-7.8V2.3H30.4z M38.2,4.9
	h2.6v2.6h-2.6V4.9z M35.7,2.3v13.1h7.8v-2.6h-5.2v-2.7h5.2V2.3H35.7z M48.7,4.9h2.6v2.6h-2.6V4.9z M46,2.3v13.1h2.6v-5.3h2.6v5.2
	h2.6v-5.2l-1.3-1.3l1.3-1.3V2.3H46z M60.5,2.3v13.1h2.6V4.9h2.6v10.4h2.6V4.9h2.6v10.4h2.6v-13H60.5z M78.8,4.9h2.6v7.8h-2.6V4.9z
	 M76.2,15.4h7.8V2.3h-7.8V15.4z M86.7,2.3v13.1h2.6V4.9h2.6v10.4h2.6v-13H86.7z M102.3,2.3v5.2h-2.6V2.3h-2.6v13.1h2.6v-5.3h2.6v5.2
	h2.6v-5.2l-1.3-1.3l1.3-1.3V2.3H102.3z M110.2,4.9h2.6v2.6h-2.6V4.9z M107.6,2.3v13.1h7.8v-2.6h-5.2v-2.7h5.2V2.3H107.6z M123.2,2.3
	v5.2h-2.6V2.3h-2.6v7.8h2.6v5.2h2.6v-5.2h2.6V2.3H123.2z M138.4,2.3l-2.1,2.1l-2-2.1h-1.8v1.8l2.1,2.1l-2.1,2.1v1.8h1.8l2.1-2.1
	l2.1,2.1h1.8V8.3l-2.1-2.1l2.1-2.1V2.3H138.4z M135.1,12.7h2.6v2.6h-2.6V12.7z"/>
  </g>
</svg>
