<svg xmlns="http://www.w3.org/2000/svg" width="64" height="64" viewBox="0 0 64 64"><g fill="none" fill-rule="evenodd"><path d="M0 0h64v64H0z"/><g stroke-linejoin="round" transform="translate(11 12.5)"><path stroke="#0FD0FF" stroke-linecap="round" d="M11.5 22.5V24c-.002 1.001.994 1.66 1.798 2.155l6.42 3.972c.793.497 1.989.87 2.782.373l6.202-4.345c.804-.496 1.8-1.654 1.798-2.655v-1M21.5 27.5v3"/><path stroke="#0080F8" stroke-linecap="round" d="M11.495 22.5l.01-6"/><path stroke="#949494" stroke-linecap="round" d="M30.5 22.5v-6"/><path stroke="#0080F8" stroke-linecap="round" d="M21.5 20.5v7"/><path stroke="#646464" stroke-linecap="round" d="M12 14.509L20 19c.828.496 1.503.624 2.33.128L30 14.5"/><path stroke="#646464" stroke-linecap="round" d="M25 12l-6.675 3.747c-.817.452-1.822 1.343-1.825 2.253v3.5M21.5 19.5v2"/><path stroke="#646464" stroke-linecap="round" d="M30.5 17.5v-1c.01-1.025-.198-1.988-1-2.5l-7-4.5c-.4-.255-1.054-.503-1.5-.5-.436.003-1.109.251-1.5.5l-7 4.5c-.806.566-.995.975-1 2v1.5"/><path stroke="#0FD0FF" stroke-linecap="round" d="M9 34.998l-6.28 6.99c-.625.683-1.627.683-2.254 0h0c-.621-.692-.621-1.814 0-2.506L6.754 32.5"/><path stroke="#646464" stroke-linecap="round" d="M27 8.5c2.7.779 4.893 2.606 6 5"/><circle cx="22" cy="18.5" r="18.5" stroke="#949494"/><path stroke="#0FD0FF" stroke-linecap="round" d="M3.5 18c0 11 8 19 19 19"/></g></g></svg>