<svg xmlns="http://www.w3.org/2000/svg" width="64" height="64" viewBox="0 0 64 64"><g fill="none" fill-rule="evenodd"><path d="M0 0h64v64H0z"/><g transform="translate(13.763 9.5)"><path stroke="#646464" stroke-linecap="round" stroke-linejoin="round" d="M29.237 25.73l5.13-6a2.19 2.19 0 0 0 .53-1.63l-.66-9.21a2.24 2.24 0 0 0-2.41-2.06l-9 .68a2.2 2.2 0 0 0-1.54.78l-13.67 16"/><path stroke="#949494" stroke-linecap="round" stroke-linejoin="round" d="M17.827 39.06l7.78-9.06 3.71-4.31"/><path stroke="#0080F8" stroke-linecap="round" stroke-linejoin="round" d="M7.627 24.2l-4.33 5.06"/><path stroke="#0FD0FF" stroke-linecap="round" stroke-linejoin="round" d="M3.237 29.29l-1.22 1.42-1.48 1.73a2.25 2.25 0 0 0 .24 3.16l9.8 8.42a2.24 2.24 0 0 0 3.16-.24l3-3.49 1.08-1.25"/><circle cx="28.237" cy="12.5" r="1" fill="#646464" fill-rule="nonzero"/><path stroke="#646464" stroke-linecap="round" stroke-linejoin="round" d="M26.052 9c-.815-3.5-.8-6.243 1.819-8.106a6.27 6.27 0 0 1 7.078.43c1.2.936 1.513 1.7 1.788 3.176"/><path fill="#646464" fill-rule="nonzero" d="M15.977 29.37a.39.39 0 0 1-.09.29.37.37 0 0 1-.28.14.4.4 0 0 1-.3-.11l-4.27-3.62a.49.49 0 0 1-.2-.33.41.41 0 0 1 .1-.33.61.61 0 0 1 .37-.2l7.66-1.4-3.58-3a.39.39 0 0 1-.15-.31.38.38 0 0 1 .09-.28.35.35 0 0 1 .27-.14.4.4 0 0 1 .3.1l4.15 3.52a.49.49 0 0 1 .2.34.4.4 0 0 1-.09.33.57.57 0 0 1-.36.18l-7.66 1.41 3.69 3.12a.43.43 0 0 1 .15.29zm7.26-2.1a.36.36 0 0 1 .14.27.38.38 0 0 1-.1.3.39.39 0 0 1-.42.13l-1.52-.27-3.23 3.8a.42.42 0 0 1-.33.17.46.46 0 0 1-.35-.12.44.44 0 0 1-.05-.67l2.86-3.38-1-.19a.69.69 0 0 1-.24-.1.37.37 0 0 1-.14-.28.48.48 0 0 1 .11-.3.42.42 0 0 1 .43-.14l1.51.28 3.14-3.71a.48.48 0 0 1 .33-.19.52.52 0 0 1 .34.12c.104.08.17.2.18.33a.45.45 0 0 1-.12.36l-2.78 3.29 1.05.19a.55.55 0 0 1 .19.11z"/></g></g></svg>