<svg xmlns="http://www.w3.org/2000/svg" width="64" height="64" viewBox="0 0 64 64"><g fill="none" fill-rule="evenodd"><path d="M0 0h64v64H0z"/><path stroke="#646464" stroke-linecap="round" stroke-linejoin="round" d="M42.5 23.5h-16M42.5 29.5h-16M42.5 34.5h-16M42.5 40.5h-16"/><path fill="#646464" fill-rule="nonzero" d="M23 24.38c0 .17-.1.25-.29.25h-1.65c-.19 0-.29-.08-.29-.25 0-.17.1-.25.29-.25h.5V22l-.46.28a.19.19 0 0 1-.12 0 .21.21 0 0 1-.17-.09.26.26 0 0 1-.07-.19.23.23 0 0 1 .13-.21l.74-.46a.51.51 0 0 1 .27-.09.33.33 0 0 1 .22.08.34.34 0 0 1 .08.23v2.59h.5c.19-.01.32.08.32.24zm0 5.75c0 .17-.09.25-.28.25h-1.88a.24.24 0 0 1-.26-.25.33.33 0 0 1 .11-.26l1.09-1.18a1.81 1.81 0 0 0 .29-.4.76.76 0 0 0 .1-.37.46.46 0 0 0-.13-.34.53.53 0 0 0-.37-.12 1 1 0 0 0-.38.07 1.9 1.9 0 0 0-.37.2l-.1.06h-.1a.16.16 0 0 1-.14-.08.28.28 0 0 1-.06-.18.21.21 0 0 1 0-.12.39.39 0 0 1 .08-.1 1.6 1.6 0 0 1 .5-.27c.18-.062.37-.096.56-.1a1.22 1.22 0 0 1 .79.25.83.83 0 0 1 .3.67 1.27 1.27 0 0 1-.13.55 2.28 2.28 0 0 1-.42.57l-.83.89h1.27c.22.02.36.13.36.26zm-.3 4.56a.84.84 0 0 1 .16.53.85.85 0 0 1-.32.69 1.31 1.31 0 0 1-.87.26 2 2 0 0 1-.6-.09 1.77 1.77 0 0 1-.49-.27.31.31 0 0 1-.11-.23.28.28 0 0 1 .06-.18.17.17 0 0 1 .14-.07h.2c.119.083.246.153.38.21a1 1 0 0 0 .4.07.71.71 0 0 0 .47-.13.46.46 0 0 0 .15-.38.44.44 0 0 0-.16-.38.84.84 0 0 0-.5-.12h-.27a.21.21 0 0 1-.17-.08.25.25 0 0 1-.06-.17.27.27 0 0 1 .06-.17.21.21 0 0 1 .17-.07h.19c.44 0 .66-.16.66-.49a.46.46 0 0 0-.14-.36.56.56 0 0 0-.38-.12 1.33 1.33 0 0 0-.75.27l-.11.06h-.08a.17.17 0 0 1-.14-.08.28.28 0 0 1-.06-.18.22.22 0 0 1 0-.12.41.41 0 0 1 .09-.1 1.58 1.58 0 0 1 .48-.27 1.85 1.85 0 0 1 .57-.1 1.15 1.15 0 0 1 .79.25.79.79 0 0 1 .3.65.91.91 0 0 1-.15.49.79.79 0 0 1-.39.3.82.82 0 0 1 .48.38zm.3 6.12a.21.21 0 0 1 .07.17c0 .16-.09.24-.28.24h-.25v.38a.28.28 0 0 1-.08.23.34.34 0 0 1-.44 0 .32.32 0 0 1-.02-.23v-.38h-1.31a.27.27 0 0 1-.2-.07.24.24 0 0 1-.07-.18.43.43 0 0 1 .08-.23l1.5-2.12a.32.32 0 0 1 .12-.11h.15a.32.32 0 0 1 .21.08.29.29 0 0 1 .09.23v2h.25a.31.31 0 0 1 .18-.01zm-2-.07h1v-1.28l-1 1.28z"/><path stroke="#646464" stroke-linecap="round" stroke-linejoin="round" d="M48.5 42.5V15"/><path stroke="#949494" stroke-linecap="round" stroke-linejoin="round" d="M48.5 19v-4.5c0-1.972-1.528-4-3.5-4h-6.5"/><path stroke="#0FD0FF" stroke-linecap="round" stroke-linejoin="round" d="M38.5 10.5h-20c-1.972 0-4 1.528-4 3.5v3.5"/><path stroke="#0080F8" stroke-linecap="round" stroke-linejoin="round" d="M14.5 17.5v32c0 1.972 2.028 3 4 3H21"/><path stroke="#646464" stroke-linecap="round" stroke-linejoin="round" d="M21 52.5h24c1.972 0 3.5-1.028 3.5-3v-8"/></g></svg>