<svg xmlns="http://www.w3.org/2000/svg" width="64" height="64" viewBox="0 0 64 64"><g fill="none" fill-rule="evenodd"><path d="M0 0h64v64H0z"/><g stroke-linecap="round" stroke-linejoin="round"><path stroke="#0082FA" d="M47.5 48.5H53c.913-.01 1.342 0 1.921 0s1.279-1.58-.421-3l-4-3.5v-6"/><path stroke="#646464" d="M11.5 20.5v-2.06c-.012-1.04.426-2.043 1.216-2.783.79-.74 1.866-1.157 2.99-1.157h30.589a4.37 4.37 0 0 1 2.976 1.139c.79.731 1.231 1.724 1.229 2.758V20.5M50.5 36.5v-4"/><path stroke="#949494" d="M11.5 32v3.5"/><path stroke="#646464" d="M14.5 42.5h33M26.5 45.5h9"/><path stroke="#0FD2FF" d="M11.5 35.5V42l-3.394 3.522a1.968 1.968 0 0 0-.433 2.226c.341.757.93.762 1.793.75H36.5"/><path stroke="#0082FA" d="M36 48.5h15"/><path stroke="#949494" d="M6 24.5h11H6zM11.5 29.5h5M3.5 29.5h5"/><path stroke="#646464" d="M46.5 24.5h6M54.5 24.5h3M51.5 28.5h10M46.5 32.5h9M24.707 35.5L22 27.674l18-.174-2.707 8zM28.5 22l-4.06 4.68M33 22l4 5"/></g></g></svg>